<svg id="_x33__x2C__XD_x2C__Adobe" xmlns="http://www.w3.org/2000/svg" width="132.108" height="141.821" viewBox="0 0 132.108 141.821">
  <g id="Group_13" data-name="Group 13" transform="translate(0 0)">
    <rect id="Rectangle_19" data-name="Rectangle 19" width="132.108" height="141.821" transform="translate(0 0)" fill="#ff26be"/>
    <rect id="Rectangle_20" data-name="Rectangle 20" width="120.483" height="129.341" transform="translate(5.812 6.241)" fill="#2e001f"/>
    <g id="Group_12" data-name="Group 12" transform="translate(24.79 37.966)">
      <g id="Group_11" data-name="Group 11">
        <path id="Path_15" data-name="Path 15" d="M140.807,137.4h-10.32L119.41,162.268,108.184,137.4H97.553l15.045,32.3-15.582,33.07h10.5L118.8,177.418,130.2,202.761h11.37L125.514,169.3Zm28.528,0v16.621h-2.974c-10.148,0-22.416,7.025-22.416,24.97,0,13.872,6.547,24.3,20.493,24.3,10.268,0,15.106-3.813,15.106-3.813V137.4Zm-.01,56.341a10.192,10.192,0,0,1-3.949.555c-2.773,0-11.282-1.312-11.282-15.795s9.777-15.643,12.127-15.643,3.1.707,3.1.707v30.176Z" transform="translate(-97.016 -137.396)" fill="#ffd9f2"/>
      </g>
    </g>
  </g>
</svg>
