<svg id="Page-1" xmlns="http://www.w3.org/2000/svg" width="137.422" height="129.497" viewBox="0 0 137.422 129.497">
  <g id="icon-88-document-file-c" transform="translate(0 0)">
    <path id="document-file-c" d="M95.251,113.312v9.6a9.683,9.683,0,0,1-9.8,9.58H11.8A9.706,9.706,0,0,1,2,122.869V12.627A9.743,9.743,0,0,1,11.858,3H60.9V31.786a9.692,9.692,0,0,0,9.845,9.583H95.251v9.592H46.2A14.573,14.573,0,0,0,31.448,65.344V98.929A14.542,14.542,0,0,0,46.2,113.312ZM65.8,3V31.763a4.86,4.86,0,0,0,4.863,4.81H95.251L65.8,3ZM46.145,55.758a9.7,9.7,0,0,0-9.789,9.554v33.65a9.7,9.7,0,0,0,9.789,9.554h83.488a9.7,9.7,0,0,0,9.789-9.554V65.312a9.7,9.7,0,0,0-9.789-9.554Zm54.014,33.573a9.7,9.7,0,0,1-9.84,9.592h-4.86a9.721,9.721,0,0,1-9.84-9.621V74.971a9.7,9.7,0,0,1,9.84-9.621h4.86a9.721,9.721,0,0,1,9.84,9.592H95.251a4.836,4.836,0,0,0-4.9-4.8H85.43a4.838,4.838,0,0,0-4.9,4.8v14.39a4.836,4.836,0,0,0,4.9,4.8h4.918a4.838,4.838,0,0,0,4.9-4.8Z" transform="translate(-2 -3)" fill="#157efb" fill-rule="evenodd"/>
  </g>
</svg>
