<svg id="XMLID_4727_" xmlns="http://www.w3.org/2000/svg" width="110.514" height="129.496" viewBox="0 0 110.514 129.496">
  <path id="XMLID_4734_" d="M339.7,6V33.66h31.206Z" transform="translate(-260.392 -6)" fill="#2e2e2e"/>
  <path id="XMLID_4729_" d="M151.025,272.724h0c0-12.717-11.436-23.024-25.545-23.024H63.7v46.049h61.78C139.589,295.749,151.025,285.441,151.025,272.724ZM77.78,280.391a5.088,5.088,0,0,0,4.138,1.839,5.642,5.642,0,0,0,3.908-1.217,4.473,4.473,0,0,0,1.351-3.5h4.052l.029.1a6.664,6.664,0,0,1-2.471,5.543,10.429,10.429,0,0,1-6.868,2.1,9.757,9.757,0,0,1-7.126-2.668,9.19,9.19,0,0,1-2.73-6.811v-4.3a9.128,9.128,0,0,1,2.7-6.812,9.526,9.526,0,0,1,7.04-2.694,10.791,10.791,0,0,1,6.983,2.046,6.541,6.541,0,0,1,2.471,5.594l-.029.1H87.176a4.452,4.452,0,0,0-1.351-3.471,5.883,5.883,0,0,0-3.994-1.217,5,5,0,0,0-4.052,1.839,6.973,6.973,0,0,0-1.494,4.61v4.351A6.674,6.674,0,0,0,77.78,280.391Zm32.47,3.16a11.264,11.264,0,0,1-6.437,1.683,12.222,12.222,0,0,1-6.7-1.839,5.632,5.632,0,0,1-2.759-5.18l.029-.1H98.44a3.492,3.492,0,0,0,1.552,3.082,6.611,6.611,0,0,0,3.793,1.036,5.915,5.915,0,0,0,3.448-.855,2.625,2.625,0,0,0,1.236-2.3,2.911,2.911,0,0,0-1.121-2.331,10.864,10.864,0,0,0-3.937-1.606,17.831,17.831,0,0,1-6.264-2.642,5.106,5.106,0,0,1-2.213-4.3,5.372,5.372,0,0,1,2.414-4.507,10.154,10.154,0,0,1,6.207-1.761,10.04,10.04,0,0,1,6.523,1.968,5.762,5.762,0,0,1,2.356,4.869l-.029.1h-4.052a3.428,3.428,0,0,0-1.322-2.849,5.482,5.482,0,0,0-3.506-1.062,5.276,5.276,0,0,0-3.276.906,2.79,2.79,0,0,0-1.149,2.331,2.527,2.527,0,0,0,1.264,2.15,13.983,13.983,0,0,0,4.167,1.606,15.458,15.458,0,0,1,6.034,2.719,5.463,5.463,0,0,1,2.069,4.4A4.93,4.93,0,0,1,110.25,283.55Zm5.862-5.335.029-.1h4.052a3.492,3.492,0,0,0,1.552,3.082,6.611,6.611,0,0,0,3.793,1.036,5.915,5.915,0,0,0,3.448-.855,2.625,2.625,0,0,0,1.236-2.3,2.911,2.911,0,0,0-1.121-2.331,10.864,10.864,0,0,0-3.937-1.606,17.831,17.831,0,0,1-6.264-2.642,5.106,5.106,0,0,1-2.213-4.3,5.372,5.372,0,0,1,2.414-4.507,10.154,10.154,0,0,1,6.207-1.761,10.04,10.04,0,0,1,6.523,1.968,5.762,5.762,0,0,1,2.356,4.869l-.029.1h-3.994a3.428,3.428,0,0,0-1.322-2.849,5.482,5.482,0,0,0-3.506-1.062,5.276,5.276,0,0,0-3.276.906,2.79,2.79,0,0,0-1.149,2.331,2.527,2.527,0,0,0,1.264,2.15,13.983,13.983,0,0,0,4.167,1.606,15.458,15.458,0,0,1,6.034,2.719,5.463,5.463,0,0,1,2.069,4.4A5.207,5.207,0,0,1,132,283.576a11.263,11.263,0,0,1-6.437,1.683,12.221,12.221,0,0,1-6.7-1.839A5.7,5.7,0,0,1,116.112,278.215Z" transform="translate(-63.7 -186.583)" fill="#2e2e2e"/>
  <path id="XMLID_4728_" d="M151.889,6.3H81V66.205h56.809c15.977,0,28.993,11.732,28.993,26.132s-13.017,26.132-28.993,26.132H81v17.249H186.371l.172-98.728H151.889Z" transform="translate(-76.029 -6.222)" fill="#5ea4d3"/>
</svg>
