<svg id="_x31_42-github" xmlns="http://www.w3.org/2000/svg" width="141.709" height="145.578" viewBox="0 0 141.709 145.578">
  <g id="Group_14" data-name="Group 14" transform="translate(0 0)">
    <path id="Path_16" data-name="Path 16" d="M73.4,148.966c0,.6-.657,1.084-1.485,1.084-.943.09-1.6-.391-1.6-1.084,0-.6.657-1.084,1.486-1.084C72.656,147.792,73.4,148.274,73.4,148.966Zm-8.885-1.355c-.2.6.371,1.294,1.228,1.475a1.31,1.31,0,0,0,1.771-.6c.172-.6-.371-1.294-1.228-1.566a1.436,1.436,0,0,0-1.771.692Zm12.628-.512c-.828.211-1.4.783-1.315,1.475.086.6.829.994,1.686.783.829-.211,1.4-.783,1.314-1.385C78.742,147.4,77.97,147.009,77.142,147.1Zm18.8-115.353C56.314,31.747,26,63.445,26,105.2c0,33.384,19.942,61.951,48.427,72.005,3.657.692,4.943-1.686,4.943-3.643,0-1.866-.085-12.162-.085-18.482,0,0-20,4.515-24.2-8.971,0,0-3.257-8.76-7.943-11.018,0,0-6.543-4.726.457-4.635a14.967,14.967,0,0,1,11.028,7.767c6.257,11.62,16.742,8.279,20.827,6.291.657-4.816,2.514-8.158,4.572-10.145-15.971-1.866-32.085-4.3-32.085-33.263,0-8.278,2.171-12.432,6.743-17.73-.743-1.957-3.172-10.024.743-20.44,5.971-1.957,19.713,8.128,19.713,8.128a64.187,64.187,0,0,1,35.884,0s13.743-10.114,19.714-8.128c3.914,10.445,1.486,18.483.743,20.44,4.572,5.328,7.371,9.482,7.371,17.73,0,29.049-16.828,31.366-32.8,33.263,2.628,2.378,4.857,6.893,4.857,13.967,0,10.144-.085,22.7-.085,25.165,0,1.957,1.314,4.335,4.943,3.643,28.57-9.994,47.941-38.561,47.941-71.945C167.71,63.445,135.568,31.747,95.941,31.747ZM53.771,135.571c-.372.3-.286.994.2,1.564.457.482,1.114.692,1.486.3.371-.3.286-.994-.2-1.565C54.8,135.39,54.143,135.179,53.771,135.571Zm-3.086-2.438c-.2.391.086.872.657,1.174a.824.824,0,0,0,1.229-.211c.2-.391-.086-.872-.657-1.174C51.343,132.741,50.885,132.831,50.686,133.132Zm9.257,10.716c-.457.391-.286,1.295.371,1.866.657.693,1.486.783,1.857.3.371-.391.2-1.294-.372-1.866C61.171,143.457,60.314,143.367,59.943,143.848Zm-3.257-4.424c-.457.3-.457,1.083,0,1.775s1.229.994,1.6.693a1.428,1.428,0,0,0,0-1.866c-.4-.692-1.142-.994-1.6-.6Z" transform="translate(-26.001 -31.747)" fill="#4d4d4d"/>
  </g>
</svg>
