<svg xmlns="http://www.w3.org/2000/svg" width="124" height="154" viewBox="0 0 124 154">
  <g id="iconfinder_17_1579075" transform="translate(0 0.119)">
    <g id="Group_9" data-name="Group 9" transform="translate(0 0)">
      <rect id="Rectangle_17" data-name="Rectangle 17" width="124" height="154" transform="translate(0 -0.119)" fill="#44c4a1"/>
      <rect id="Rectangle_18" data-name="Rectangle 18" width="124" height="19" transform="translate(0 134.881)" fill="#3ea69b"/>
    </g>
    <g id="Group_10" data-name="Group 10" transform="translate(29.301 34.552)">
      <path id="Path_10" data-name="Path 10" d="M26.6,22.919h3.5v3.829h4V15.5h-4v3.829H26.6V15.5h-4V26.748h4Z" transform="translate(-16.595 -15.5)" fill="#fff"/>
      <path id="Path_11" data-name="Path 11" d="M31.8,26.748h4V19.329h3.5V15.5H28.3v3.829h3.5Z" transform="translate(-8.033 -15.5)" fill="#fff"/>
      <path id="Path_12" data-name="Path 12" d="M37.5,21.244l2.5,4.068h.25l2.5-4.068v5.5h4V15.5h-4l-2.5,4.068-2.5-4.068H33.5V26.748h4Z" transform="translate(-0.222 -15.5)" fill="#fff"/>
      <path id="Path_13" data-name="Path 13" d="M49.208,23.158H43.7V15.5h-4V26.748h9.508Z" transform="translate(9.09 -15.5)" fill="#fff"/>
      <path id="Path_14" data-name="Path 14" d="M20.2,22.6l5.755,61.265,26.272,5.5,26.272-5.5L84.253,22.6ZM71.242,41.985H40.467l1.5,5.5H69.741l-3,25.128-14.512,5.5-14.512-5.5L35.463,61.369H43.72l1.5,5.5,7.256,2.872,7.256-2.872,1.5-11.248H34.712l-3-22.257H72.744Z" transform="translate(-20.2 -5.608)" fill="#fff"/>
    </g>
  </g>
</svg>
