<svg id="_x31_81-java" xmlns="http://www.w3.org/2000/svg" width="125.14" height="168.593" viewBox="0 0 125.14 168.593">
  <g id="Group_4" data-name="Group 4" transform="translate(0 0)">
    <path id="Path_2" data-name="Path 2" d="M200.743,289.37a53.75,53.75,0,0,1,7.758-4.116s-12.83,2.305-25.595,3.359c-15.616,1.284-32.392,1.547-40.813.428-19.926-2.634,10.941-9.912,10.941-9.912s-11.969-.789-26.723,6.256C108.906,293.75,169.412,297.569,200.743,289.37Z" transform="translate(-109.653 -186.339)" fill="#5382a1"/>
    <path id="Path_3" data-name="Path 3" d="M218.107,118.461c-6.3-14.06-27.551-26.408,0-48.009C252.489,43.518,234.85,26,234.85,26c7.128,27.824-25.065,36.254-36.7,53.541C190.224,91.362,202.027,104.039,218.107,118.461Z" transform="translate(-155.331 -26)" fill="#f8981d"/>
    <path id="Path_4" data-name="Path 4" d="M294.813,119.975c.033,0-58.086,14.422-30.336,46.164,8.189,9.352-2.155,17.781-2.155,17.781s20.788-10.668,11.239-24C264.643,147.47,257.813,141.279,294.813,119.975Z" transform="translate(-194.042 -85.533)" fill="#f8981d"/>
    <path id="Path_5" data-name="Path 5" d="M352.905,307.131a4.008,4.008,0,0,1-.663.856c42.536-11.1,26.888-39.152,6.564-32.039a5.731,5.731,0,0,0-2.718,2.074,23.391,23.391,0,0,1,3.647-.988c10.277-2.14,25.031,13.665-6.83,30.1Z" transform="translate(-254.156 -183.618)" fill="#5382a1"/>
    <path id="Path_6" data-name="Path 6" d="M200.845,416.517s4.807,3.919-5.272,6.981c-19.2,5.762-79.836,7.507-96.678.231-6.067-2.6,5.3-6.257,8.885-7.014a24.224,24.224,0,0,1,5.868-.659c-6.73-4.708-43.532,9.253-18.7,13.238,67.7,10.931,123.468-4.907,105.9-12.776Z" transform="translate(-86.447 -272.49)" fill="#5382a1"/>
    <path id="Path_7" data-name="Path 7" d="M181.612,381.776c-26.093,7.244,15.881,22.194,49.1,8.067a61.765,61.765,0,0,1-9.349-4.544c-14.82,2.8-21.683,3-35.144,1.482-11.107-1.251-4.608-5.005-4.608-5.005Z" transform="translate(-141.347 -251.382)" fill="#5382a1"/>
    <path id="Path_8" data-name="Path 8" d="M224.839,452.2c-26.092,4.873-58.285,4.314-77.349,1.185,0-.032,3.912,3.194,24,4.479,30.568,1.943,77.515-1.087,78.609-15.443,0,0-2.122,5.434-25.264,9.78Z" transform="translate(-124.963 -289.799)" fill="#5382a1"/>
    <path id="Path_9" data-name="Path 9" d="M218.156,335.689c-19.628,3.754-31,3.655-45.355,2.173-11.107-1.153-3.846-6.486-3.846-6.486-28.778,9.483,15.98,20.218,56.2,8.528A20.036,20.036,0,0,1,218.156,335.689Z" transform="translate(-132.735 -219.454)" fill="#5382a1"/>
  </g>
</svg>
