<svg xmlns="http://www.w3.org/2000/svg" width="136" height="154" viewBox="0 0 136 154">
  <g id="_x31_87-js" transform="translate(0.413 0.119)">
    <g id="Group_16" data-name="Group 16" transform="translate(0 0)">
      <rect id="Rectangle_21" data-name="Rectangle 21" width="136" height="154" transform="translate(-0.413 -0.119)" fill="#f0db4f"/>
      <path id="Path_18" data-name="Path 18" d="M185.452,286.106c0,14.835-7.836,21.607-19.254,21.607-10.315,0-16.284-5.92-19.345-13.1l10.5-7.044c2.02,3.981,3.857,7.349,8.3,7.349,4.224,0,6.918-1.837,6.918-9.016V237.21h12.887v48.9Z" transform="translate(-110.89 -167.239)" fill="#323330"/>
      <path id="Path_19" data-name="Path 19" d="M323.321,306.066c-11.968,0-19.712-6.329-23.478-14.631l10.5-6.738c2.755,5,6.366,8.711,12.7,8.711,5.326,0,8.754-2.96,8.754-7.077,0-4.9-3.489-6.635-9.4-9.527l-3.214-1.531c-9.305-4.39-15.458-9.936-15.458-21.607,0-10.753,7.377-18.919,18.855-18.919,8.2,0,14.081,3.164,18.3,11.467l-10.04,7.145c-2.2-4.39-4.591-6.124-8.295-6.124a5.869,5.869,0,0,0-6.153,6.124c0,4.287,2.388,6.023,7.928,8.711l3.214,1.531c10.958,5.206,17.111,10.549,17.111,22.526,0,12.861-9.121,19.939-21.334,19.939Z" transform="translate(-218.272 -165.592)" fill="#323330"/>
    </g>
  </g>
</svg>
