<svg id="_x32_67-python" xmlns="http://www.w3.org/2000/svg" width="145.172" height="153.144" viewBox="0 0 145.172 153.144">
  <g id="Group_17" data-name="Group 17" transform="translate(0 0)">
    <path id="Path_20" data-name="Path 20" d="M81.713,98.971H115.3c9.34,0,16.793-8.083,16.793-17.914V47.441c0-9.566-7.673-16.725-16.793-18.342a98.875,98.875,0,0,0-33.584.033C67.5,31.772,64.921,37.281,64.921,47.475v7.195H98.536V65.388H52.311c-9.779,0-18.334,6.169-21.006,17.88-3.082,13.427-3.207,21.806,0,35.826,2.39,10.425,8.082,17.88,17.861,17.88H60.707v-16.1c0-11.645,9.591-21.905,21.006-21.905Z" transform="translate(-28.946 -27.68)" fill="#347ab4"/>
    <path id="Path_21" data-name="Path 21" d="M260.5,173.937c-2.422-10.194-7.012-17.88-16.792-17.88H231.1v15.637c0,12.14-9.812,22.366-21.007,22.366H176.5c-9.183,0-16.792,8.248-16.792,17.914v33.583c0,9.566,7.924,15.174,16.792,17.913,10.629,3.266,20.848,3.86,33.584,0,8.46-2.574,16.793-7.752,16.793-17.913v-7.042H193.329V227.644H243.7c9.78,0,13.4-7.159,16.792-17.88,3.522-11.052,3.365-21.674,0-35.826Z" transform="translate(-117.908 -113.003)" fill="#ffca1d"/>
    <path id="Path_22" data-name="Path 22" d="M174.506,64.057a6.455,6.455,0,1,1,6.066-6.427A6.257,6.257,0,0,1,174.506,64.057Z" transform="translate(-123.846 -43.293)" fill="#fff"/>
    <path id="Path_23" data-name="Path 23" d="M302,434.539a6.455,6.455,0,1,1,6.066-6.427A6.257,6.257,0,0,1,302,434.539Z" transform="translate(-210.58 -289.526)" fill="#fff"/>
  </g>
</svg>
